<svg xmlns="http://www.w3.org/2000/svg" xmlns:xlink="http://www.w3.org/1999/xlink" width="100%" height="100%" viewBox="0 0 950 610" preserveAspectRatio="xMinYMin meet" ><rect id="svgEditorBackground" x="0" y="0" width="950" height="610" style="fill: none; stroke: none;"/><g id="e3_group" transform="matrix(1 0 0 1 0.995807 -2.98742)"><circle id="e1_circle" cx="500.890000" cy="256.919000" style="fill:aqua;stroke:fuchsia;stroke-width:3.03px;" r="94.245000" transform="matrix(0.867308 0 0 0.867308 39.0792 67.9484)"/><polyline style="stroke:fuchsia;fill:none;stroke-width:3px;" id="e2_polyline" points="425.21,245.964,448.113,272.851,468.029,246.96" transform="matrix(-1 2.77556e-16 -2.77556e-16 -1 900.21 520.807)"/><polyline style="stroke:fuchsia;fill:none;stroke-width:3px;" id="e3_polyline" points="475,247.956,497.904,274.843,517.82,248.952" transform="matrix(-1 -2.77556e-16 2.77556e-16 -1 992.82 522.799)"/><polyline style="stroke:fuchsia;fill:none;stroke-width:3px;" id="e1_polyline" points="473.01,307.704,495.913,334.591,515.828,308.7" transform="matrix(1 6.66134e-16 -6.66134e-16 1 1.99157 2.9874)"/><polyline style="stroke:fuchsia;fill:none;stroke-width:3px;" id="e4_polyline" points="432.181,309.696,455.084,336.583,475,310.692" transform="matrix(1 -6.66134e-16 6.66134e-16 1 0.0000215792 -0.00000893839)"/><polyline style="stroke:fuchsia;fill:none;stroke-width:3.1px;" id="e16_polyline" points="509.101,118.66,532.004,145.547,551.919,119.656" transform="matrix(-0.707107 -0.707107 0.707107 -0.707107 819.951 694.088)"/><polyline style="stroke:fuchsia;fill:none;stroke-width:3.03px;" id="e17_polyline" points="664.717,-4.5656,687.62,22.3214,707.535,-3.5696" transform="matrix(-0.707107 0.707107 -0.707107 -0.707107 901.217 -255.329)"/></g></svg>